<mxfile host="app.diagrams.net" agent="Mozilla/5.0 (Windows NT 10.0; Win64; x64) AppleWebKit/537.36 (KHTML, like Gecko) Chrome/131.0.0.0 Safari/537.36" version="26.0.7">
  <diagram id="C5RBs43oDa-KdzZeNtuy" name="Page-1">
    <mxGraphModel dx="5736" dy="4357" grid="1" gridSize="10" guides="1" tooltips="1" connect="1" arrows="1" fold="1" page="1" pageScale="1" pageWidth="827" pageHeight="1169" math="0" shadow="0">
      <root>
        <mxCell id="WIyWlLk6GJQsqaUBKTNV-0" />
        <mxCell id="WIyWlLk6GJQsqaUBKTNV-1" parent="WIyWlLk6GJQsqaUBKTNV-0" />
        <mxCell id="zkfFHV4jXpPFQw0GAbJ--0" value="AnimalDatabase" style="swimlane;fontStyle=2;align=center;verticalAlign=top;childLayout=stackLayout;horizontal=1;startSize=26;horizontalStack=0;resizeParent=1;resizeLast=0;collapsible=1;marginBottom=0;rounded=0;shadow=0;strokeWidth=1;" parent="WIyWlLk6GJQsqaUBKTNV-1" vertex="1">
          <mxGeometry x="1810" y="-590" width="290" height="110" as="geometry">
            <mxRectangle x="230" y="140" width="160" height="26" as="alternateBounds" />
          </mxGeometry>
        </mxCell>
        <mxCell id="zkfFHV4jXpPFQw0GAbJ--1" value="+ pets_table_path: str " style="text;align=left;verticalAlign=top;spacingLeft=4;spacingRight=4;overflow=hidden;rotatable=0;points=[[0,0.5],[1,0.5]];portConstraint=eastwest;" parent="zkfFHV4jXpPFQw0GAbJ--0" vertex="1">
          <mxGeometry y="26" width="290" height="26" as="geometry" />
        </mxCell>
        <mxCell id="zkfFHV4jXpPFQw0GAbJ--4" value="" style="line;html=1;strokeWidth=1;align=left;verticalAlign=middle;spacingTop=-1;spacingLeft=3;spacingRight=3;rotatable=0;labelPosition=right;points=[];portConstraint=eastwest;" parent="zkfFHV4jXpPFQw0GAbJ--0" vertex="1">
          <mxGeometry y="52" width="290" height="8" as="geometry" />
        </mxCell>
        <mxCell id="zkfFHV4jXpPFQw0GAbJ--3" value=" + get_pet_list_by_user_id(user_id: int) : DataFrame &#xa; + insert_data(animal: Animal) : bool" style="text;align=left;verticalAlign=top;spacingLeft=4;spacingRight=4;overflow=hidden;rotatable=0;points=[[0,0.5],[1,0.5]];portConstraint=eastwest;rounded=0;shadow=0;html=0;" parent="zkfFHV4jXpPFQw0GAbJ--0" vertex="1">
          <mxGeometry y="60" width="290" height="50" as="geometry" />
        </mxCell>
        <mxCell id="zkfFHV4jXpPFQw0GAbJ--6" value="PurchasesDatabase" style="swimlane;fontStyle=0;align=center;verticalAlign=top;childLayout=stackLayout;horizontal=1;startSize=26;horizontalStack=0;resizeParent=1;resizeLast=0;collapsible=1;marginBottom=0;rounded=0;shadow=0;strokeWidth=1;" parent="WIyWlLk6GJQsqaUBKTNV-1" vertex="1">
          <mxGeometry x="2280" y="-1100" width="400" height="120" as="geometry">
            <mxRectangle x="130" y="380" width="160" height="26" as="alternateBounds" />
          </mxGeometry>
        </mxCell>
        <mxCell id="zkfFHV4jXpPFQw0GAbJ--7" value=" + table_path: str " style="text;align=left;verticalAlign=top;spacingLeft=4;spacingRight=4;overflow=hidden;rotatable=0;points=[[0,0.5],[1,0.5]];portConstraint=eastwest;" parent="zkfFHV4jXpPFQw0GAbJ--6" vertex="1">
          <mxGeometry y="26" width="400" height="26" as="geometry" />
        </mxCell>
        <mxCell id="zkfFHV4jXpPFQw0GAbJ--9" value="" style="line;html=1;strokeWidth=1;align=left;verticalAlign=middle;spacingTop=-1;spacingLeft=3;spacingRight=3;rotatable=0;labelPosition=right;points=[];portConstraint=eastwest;" parent="zkfFHV4jXpPFQw0GAbJ--6" vertex="1">
          <mxGeometry y="52" width="400" height="8" as="geometry" />
        </mxCell>
        <mxCell id="zkfFHV4jXpPFQw0GAbJ--11" value="+ __init__()  &#xa;+ get_current_purchase_id() : int &#xa;+ insert_purchase(user: User, type: str, product: pd.DataFrame) : None " style="text;align=left;verticalAlign=top;spacingLeft=4;spacingRight=4;overflow=hidden;rotatable=0;points=[[0,0.5],[1,0.5]];portConstraint=eastwest;" parent="zkfFHV4jXpPFQw0GAbJ--6" vertex="1">
          <mxGeometry y="60" width="400" height="60" as="geometry" />
        </mxCell>
        <mxCell id="zkfFHV4jXpPFQw0GAbJ--17" value="ProductDatabase" style="swimlane;fontStyle=0;align=center;verticalAlign=top;childLayout=stackLayout;horizontal=1;startSize=26;horizontalStack=0;resizeParent=1;resizeLast=0;collapsible=1;marginBottom=0;rounded=0;shadow=0;strokeWidth=1;" parent="WIyWlLk6GJQsqaUBKTNV-1" vertex="1">
          <mxGeometry x="120" y="-400" width="240" height="120" as="geometry">
            <mxRectangle x="550" y="140" width="160" height="26" as="alternateBounds" />
          </mxGeometry>
        </mxCell>
        <mxCell id="zkfFHV4jXpPFQw0GAbJ--18" value="+ table_path: str" style="text;align=left;verticalAlign=top;spacingLeft=4;spacingRight=4;overflow=hidden;rotatable=0;points=[[0,0.5],[1,0.5]];portConstraint=eastwest;" parent="zkfFHV4jXpPFQw0GAbJ--17" vertex="1">
          <mxGeometry y="26" width="240" height="26" as="geometry" />
        </mxCell>
        <mxCell id="zkfFHV4jXpPFQw0GAbJ--23" value="" style="line;html=1;strokeWidth=1;align=left;verticalAlign=middle;spacingTop=-1;spacingLeft=3;spacingRight=3;rotatable=0;labelPosition=right;points=[];portConstraint=eastwest;" parent="zkfFHV4jXpPFQw0GAbJ--17" vertex="1">
          <mxGeometry y="52" width="240" height="8" as="geometry" />
        </mxCell>
        <mxCell id="zkfFHV4jXpPFQw0GAbJ--25" value="+ __init__()      &#xa;+ get_all_products() : DataFrame &#xa;+ decrease_item(product: Product) : None " style="text;align=left;verticalAlign=top;spacingLeft=4;spacingRight=4;overflow=hidden;rotatable=0;points=[[0,0.5],[1,0.5]];portConstraint=eastwest;" parent="zkfFHV4jXpPFQw0GAbJ--17" vertex="1">
          <mxGeometry y="60" width="240" height="60" as="geometry" />
        </mxCell>
        <mxCell id="9NaxNAaGBJFPDdamEWR7-0" value="UserDatabase" style="swimlane;fontStyle=0;align=center;verticalAlign=top;childLayout=stackLayout;horizontal=1;startSize=26;horizontalStack=0;resizeParent=1;resizeLast=0;collapsible=1;marginBottom=0;rounded=0;shadow=0;strokeWidth=1;" vertex="1" parent="WIyWlLk6GJQsqaUBKTNV-1">
          <mxGeometry x="1180" y="-373" width="490" height="150" as="geometry">
            <mxRectangle x="130" y="380" width="160" height="26" as="alternateBounds" />
          </mxGeometry>
        </mxCell>
        <mxCell id="9NaxNAaGBJFPDdamEWR7-1" value=" + table_path: str " style="text;align=left;verticalAlign=top;spacingLeft=4;spacingRight=4;overflow=hidden;rotatable=0;points=[[0,0.5],[1,0.5]];portConstraint=eastwest;" vertex="1" parent="9NaxNAaGBJFPDdamEWR7-0">
          <mxGeometry y="26" width="490" height="26" as="geometry" />
        </mxCell>
        <mxCell id="9NaxNAaGBJFPDdamEWR7-2" value="" style="line;html=1;strokeWidth=1;align=left;verticalAlign=middle;spacingTop=-1;spacingLeft=3;spacingRight=3;rotatable=0;labelPosition=right;points=[];portConstraint=eastwest;" vertex="1" parent="9NaxNAaGBJFPDdamEWR7-0">
          <mxGeometry y="52" width="490" height="8" as="geometry" />
        </mxCell>
        <mxCell id="9NaxNAaGBJFPDdamEWR7-3" value="+ __init__()&#xa;+ is_name_taken(name: str) : bool &#xa;+ get_user_with_username_and_password(username: str, password: str) : DataFrame &#xa;+ get_current_id() : int &#xa;+ insert_data(user: User) : None " style="text;align=left;verticalAlign=top;spacingLeft=4;spacingRight=4;overflow=hidden;rotatable=0;points=[[0,0.5],[1,0.5]];portConstraint=eastwest;" vertex="1" parent="9NaxNAaGBJFPDdamEWR7-0">
          <mxGeometry y="60" width="490" height="90" as="geometry" />
        </mxCell>
        <mxCell id="9NaxNAaGBJFPDdamEWR7-4" value="Banho" style="swimlane;fontStyle=0;align=center;verticalAlign=top;childLayout=stackLayout;horizontal=1;startSize=26;horizontalStack=0;resizeParent=1;resizeLast=0;collapsible=1;marginBottom=0;rounded=0;shadow=0;strokeWidth=1;" vertex="1" parent="WIyWlLk6GJQsqaUBKTNV-1">
          <mxGeometry x="550" y="-400" width="240" height="200" as="geometry">
            <mxRectangle x="550" y="140" width="160" height="26" as="alternateBounds" />
          </mxGeometry>
        </mxCell>
        <mxCell id="9NaxNAaGBJFPDdamEWR7-5" value="+ page: Page    &#xa;+ element: Elements &#xa;+ title: str      &#xa;+ back: Button    &#xa;+ selected_item: dict &#xa;+ modal: Modal" style="text;align=left;verticalAlign=top;spacingLeft=4;spacingRight=4;overflow=hidden;rotatable=0;points=[[0,0.5],[1,0.5]];portConstraint=eastwest;" vertex="1" parent="9NaxNAaGBJFPDdamEWR7-4">
          <mxGeometry y="26" width="240" height="94" as="geometry" />
        </mxCell>
        <mxCell id="9NaxNAaGBJFPDdamEWR7-6" value="" style="line;html=1;strokeWidth=1;align=left;verticalAlign=middle;spacingTop=-1;spacingLeft=3;spacingRight=3;rotatable=0;labelPosition=right;points=[];portConstraint=eastwest;" vertex="1" parent="9NaxNAaGBJFPDdamEWR7-4">
          <mxGeometry y="120" width="240" height="8" as="geometry" />
        </mxCell>
        <mxCell id="9NaxNAaGBJFPDdamEWR7-7" value="+ __init__(page: Page) &#xa;+ on_item_click(item: dict) : None &#xa;+ go_payment() : None &#xa;+ close_modal() : None " style="text;align=left;verticalAlign=top;spacingLeft=4;spacingRight=4;overflow=hidden;rotatable=0;points=[[0,0.5],[1,0.5]];portConstraint=eastwest;" vertex="1" parent="9NaxNAaGBJFPDdamEWR7-4">
          <mxGeometry y="128" width="240" height="62" as="geometry" />
        </mxCell>
        <mxCell id="9NaxNAaGBJFPDdamEWR7-8" value="Cart" style="swimlane;fontStyle=0;align=center;verticalAlign=top;childLayout=stackLayout;horizontal=1;startSize=26;horizontalStack=0;resizeParent=1;resizeLast=0;collapsible=1;marginBottom=0;rounded=0;shadow=0;strokeWidth=1;" vertex="1" parent="WIyWlLk6GJQsqaUBKTNV-1">
          <mxGeometry x="365" y="370" width="240" height="262" as="geometry">
            <mxRectangle x="550" y="140" width="160" height="26" as="alternateBounds" />
          </mxGeometry>
        </mxCell>
        <mxCell id="9NaxNAaGBJFPDdamEWR7-9" value="+ page: Page      &#xa;+ cart: Cart      &#xa;+ element: Elements &#xa;+ title: str      &#xa;+ payment_button: Button &#xa;+ back: Button    &#xa;+ total_price_text: Text &#xa;+ lista: Scrollable_list &#xa;+ selected_item: dict &#xa;+ modal: ItemDetailsModal " style="text;align=left;verticalAlign=top;spacingLeft=4;spacingRight=4;overflow=hidden;rotatable=0;points=[[0,0.5],[1,0.5]];portConstraint=eastwest;" vertex="1" parent="9NaxNAaGBJFPDdamEWR7-8">
          <mxGeometry y="26" width="240" height="154" as="geometry" />
        </mxCell>
        <mxCell id="9NaxNAaGBJFPDdamEWR7-10" value="" style="line;html=1;strokeWidth=1;align=left;verticalAlign=middle;spacingTop=-1;spacingLeft=3;spacingRight=3;rotatable=0;labelPosition=right;points=[];portConstraint=eastwest;" vertex="1" parent="9NaxNAaGBJFPDdamEWR7-8">
          <mxGeometry y="180" width="240" height="10" as="geometry" />
        </mxCell>
        <mxCell id="9NaxNAaGBJFPDdamEWR7-11" value="+ __init__(page: Page) &#xa;+ on_item_click(item: dict) : None &#xa;+ go_payment() : None &#xa;+ close_modal() : None " style="text;align=left;verticalAlign=top;spacingLeft=4;spacingRight=4;overflow=hidden;rotatable=0;points=[[0,0.5],[1,0.5]];portConstraint=eastwest;" vertex="1" parent="9NaxNAaGBJFPDdamEWR7-8">
          <mxGeometry y="190" width="240" height="62" as="geometry" />
        </mxCell>
        <mxCell id="9NaxNAaGBJFPDdamEWR7-12" value="Home" style="swimlane;fontStyle=0;align=center;verticalAlign=top;childLayout=stackLayout;horizontal=1;startSize=26;horizontalStack=0;resizeParent=1;resizeLast=0;collapsible=1;marginBottom=0;rounded=0;shadow=0;strokeWidth=1;" vertex="1" parent="WIyWlLk6GJQsqaUBKTNV-1">
          <mxGeometry x="720" y="-1100" width="240" height="202" as="geometry">
            <mxRectangle x="550" y="140" width="160" height="26" as="alternateBounds" />
          </mxGeometry>
        </mxCell>
        <mxCell id="9NaxNAaGBJFPDdamEWR7-13" value="+ page: Page&#xa;+ element: Elements &#xa;+ padding: Container &#xa;+ title: str  &#xa;+ login: Button&#xa;+ register: Button &#xa;+ out: Button  " style="text;align=left;verticalAlign=top;spacingLeft=4;spacingRight=4;overflow=hidden;rotatable=0;points=[[0,0.5],[1,0.5]];portConstraint=eastwest;" vertex="1" parent="9NaxNAaGBJFPDdamEWR7-12">
          <mxGeometry y="26" width="240" height="104" as="geometry" />
        </mxCell>
        <mxCell id="9NaxNAaGBJFPDdamEWR7-14" value="" style="line;html=1;strokeWidth=1;align=left;verticalAlign=middle;spacingTop=-1;spacingLeft=3;spacingRight=3;rotatable=0;labelPosition=right;points=[];portConstraint=eastwest;" vertex="1" parent="9NaxNAaGBJFPDdamEWR7-12">
          <mxGeometry y="130" width="240" height="10" as="geometry" />
        </mxCell>
        <mxCell id="9NaxNAaGBJFPDdamEWR7-15" value="+ __init__(page: Page) &#xa;+ close_app(e: Event) : None &#xa;+ build() : Container " style="text;align=left;verticalAlign=top;spacingLeft=4;spacingRight=4;overflow=hidden;rotatable=0;points=[[0,0.5],[1,0.5]];portConstraint=eastwest;" vertex="1" parent="9NaxNAaGBJFPDdamEWR7-12">
          <mxGeometry y="140" width="240" height="62" as="geometry" />
        </mxCell>
        <mxCell id="9NaxNAaGBJFPDdamEWR7-16" value="Login" style="swimlane;fontStyle=0;align=center;verticalAlign=top;childLayout=stackLayout;horizontal=1;startSize=26;horizontalStack=0;resizeParent=1;resizeLast=0;collapsible=1;marginBottom=0;rounded=0;shadow=0;strokeWidth=1;" vertex="1" parent="WIyWlLk6GJQsqaUBKTNV-1">
          <mxGeometry x="1004" y="-788" width="240" height="242" as="geometry">
            <mxRectangle x="550" y="140" width="160" height="26" as="alternateBounds" />
          </mxGeometry>
        </mxCell>
        <mxCell id="9NaxNAaGBJFPDdamEWR7-17" value="+ page: Page&#xa;+ user_database: UserDatabase&#xa;+ element: Elements&#xa;+ title: str&#xa;+ padding: Container&#xa;+ input_name: TextField&#xa;+ input_password: TextField&#xa;+ login: Button&#xa;+ back: Button" style="text;align=left;verticalAlign=top;spacingLeft=4;spacingRight=4;overflow=hidden;rotatable=0;points=[[0,0.5],[1,0.5]];portConstraint=eastwest;" vertex="1" parent="9NaxNAaGBJFPDdamEWR7-16">
          <mxGeometry y="26" width="240" height="134" as="geometry" />
        </mxCell>
        <mxCell id="9NaxNAaGBJFPDdamEWR7-18" value="" style="line;html=1;strokeWidth=1;align=left;verticalAlign=middle;spacingTop=-1;spacingLeft=3;spacingRight=3;rotatable=0;labelPosition=right;points=[];portConstraint=eastwest;" vertex="1" parent="9NaxNAaGBJFPDdamEWR7-16">
          <mxGeometry y="160" width="240" height="10" as="geometry" />
        </mxCell>
        <mxCell id="9NaxNAaGBJFPDdamEWR7-19" value="+ __init__(page: Page)&#xa;+ build() : Container&#xa;+ verify_data(e: Event) : bool" style="text;align=left;verticalAlign=top;spacingLeft=4;spacingRight=4;overflow=hidden;rotatable=0;points=[[0,0.5],[1,0.5]];portConstraint=eastwest;" vertex="1" parent="9NaxNAaGBJFPDdamEWR7-16">
          <mxGeometry y="170" width="240" height="62" as="geometry" />
        </mxCell>
        <mxCell id="9NaxNAaGBJFPDdamEWR7-20" value="Menu" style="swimlane;fontStyle=0;align=center;verticalAlign=top;childLayout=stackLayout;horizontal=1;startSize=26;horizontalStack=0;resizeParent=1;resizeLast=0;collapsible=1;marginBottom=0;rounded=0;shadow=0;strokeWidth=1;" vertex="1" parent="WIyWlLk6GJQsqaUBKTNV-1">
          <mxGeometry x="720" y="-788" width="240" height="292" as="geometry">
            <mxRectangle x="550" y="140" width="160" height="26" as="alternateBounds" />
          </mxGeometry>
        </mxCell>
        <mxCell id="9NaxNAaGBJFPDdamEWR7-21" value="+ page: Page&#xa;+ animal_database: AnimalDatabase&#xa;+ element: Elements&#xa;+ padding: Container&#xa;+ user: User&#xa;+ user_name: Text&#xa;+ has_pet: bool&#xa;+ title: str&#xa;+ shop: Button&#xa;+ myPets: Button&#xa;+ my_purchases: Button&#xa;+ out: Button" style="text;align=left;verticalAlign=top;spacingLeft=4;spacingRight=4;overflow=hidden;rotatable=0;points=[[0,0.5],[1,0.5]];portConstraint=eastwest;" vertex="1" parent="9NaxNAaGBJFPDdamEWR7-20">
          <mxGeometry y="26" width="240" height="174" as="geometry" />
        </mxCell>
        <mxCell id="9NaxNAaGBJFPDdamEWR7-22" value="" style="line;html=1;strokeWidth=1;align=left;verticalAlign=middle;spacingTop=-1;spacingLeft=3;spacingRight=3;rotatable=0;labelPosition=right;points=[];portConstraint=eastwest;" vertex="1" parent="9NaxNAaGBJFPDdamEWR7-20">
          <mxGeometry y="200" width="240" height="10" as="geometry" />
        </mxCell>
        <mxCell id="9NaxNAaGBJFPDdamEWR7-23" value="+ __init__(page: Page)&#xa;+ close_app(e: Event) : None&#xa;+ build() : Container&#xa;+ go_pets(e: Event) : None&#xa;+ verify_pet() : None" style="text;align=left;verticalAlign=top;spacingLeft=4;spacingRight=4;overflow=hidden;rotatable=0;points=[[0,0.5],[1,0.5]];portConstraint=eastwest;" vertex="1" parent="9NaxNAaGBJFPDdamEWR7-20">
          <mxGeometry y="210" width="240" height="80" as="geometry" />
        </mxCell>
        <mxCell id="9NaxNAaGBJFPDdamEWR7-24" value="Payment" style="swimlane;fontStyle=0;align=center;verticalAlign=top;childLayout=stackLayout;horizontal=1;startSize=26;horizontalStack=0;resizeParent=1;resizeLast=0;collapsible=1;marginBottom=0;rounded=0;shadow=0;strokeWidth=1;" vertex="1" parent="WIyWlLk6GJQsqaUBKTNV-1">
          <mxGeometry x="365" y="720" width="240" height="360" as="geometry">
            <mxRectangle x="550" y="140" width="160" height="26" as="alternateBounds" />
          </mxGeometry>
        </mxCell>
        <mxCell id="9NaxNAaGBJFPDdamEWR7-25" value="+ page: Page&#xa;+ element: Elements&#xa;+ back: Button&#xa;+ user: User&#xa;+ payment_info: dict&#xa;+ product_database: ProductDatabase&#xa;+ purchases_database: PurchasesDatabase&#xa;+ price: str&#xa;+ image_path: str&#xa;+ dynamic_container: Container&#xa;+ number_card: TextField&#xa;+ cvv: TextField&#xa;+ validade: TextField&#xa;+ title: str&#xa;+ input_name: TextField&#xa;+ input_address: TextField&#xa;+ radio_input: RadioGroup" style="text;align=left;verticalAlign=top;spacingLeft=4;spacingRight=4;overflow=hidden;rotatable=0;points=[[0,0.5],[1,0.5]];portConstraint=eastwest;" vertex="1" parent="9NaxNAaGBJFPDdamEWR7-24">
          <mxGeometry y="26" width="240" height="244" as="geometry" />
        </mxCell>
        <mxCell id="9NaxNAaGBJFPDdamEWR7-26" value="" style="line;html=1;strokeWidth=1;align=left;verticalAlign=middle;spacingTop=-1;spacingLeft=3;spacingRight=3;rotatable=0;labelPosition=right;points=[];portConstraint=eastwest;" vertex="1" parent="9NaxNAaGBJFPDdamEWR7-24">
          <mxGeometry y="270" width="240" height="10" as="geometry" />
        </mxCell>
        <mxCell id="9NaxNAaGBJFPDdamEWR7-27" value="+ __init__(page: Page)&#xa;+ build() : Container&#xa;+ verify_data(e: Event) : None&#xa;+ radiogroup_changed(e: Event) : None" style="text;align=left;verticalAlign=top;spacingLeft=4;spacingRight=4;overflow=hidden;rotatable=0;points=[[0,0.5],[1,0.5]];portConstraint=eastwest;" vertex="1" parent="9NaxNAaGBJFPDdamEWR7-24">
          <mxGeometry y="280" width="240" height="70" as="geometry" />
        </mxCell>
        <mxCell id="9NaxNAaGBJFPDdamEWR7-28" value="PetRegister" style="swimlane;fontStyle=0;align=center;verticalAlign=top;childLayout=stackLayout;horizontal=1;startSize=26;horizontalStack=0;resizeParent=1;resizeLast=0;collapsible=1;marginBottom=0;rounded=0;shadow=0;strokeWidth=1;" vertex="1" parent="WIyWlLk6GJQsqaUBKTNV-1">
          <mxGeometry x="1820" y="-1100" width="280" height="390" as="geometry">
            <mxRectangle x="550" y="140" width="160" height="26" as="alternateBounds" />
          </mxGeometry>
        </mxCell>
        <mxCell id="9NaxNAaGBJFPDdamEWR7-29" value="+ page: Page&#xa;+ element: Elements&#xa;+ title: str&#xa;+ padding: Container&#xa;+ specie_input: Dropdown&#xa;+ name_input: TextField&#xa;+ sex_input: Dropdown&#xa;+ castrated_input: Dropdown&#xa;+ race_input: TextField&#xa;+ age_input: TextField&#xa;+ weight_input: TextField&#xa;+ upload_button: ElevatedButton&#xa;+ register: Button&#xa;+ back: Button&#xa;+ user: User&#xa;+ animal_database: AnimalDatabase&#xa;+ pick_files_dialog: FilePicker&#xa;+ selected_file_path: str&#xa;+ has_uploaded_file: bool" style="text;align=left;verticalAlign=top;spacingLeft=4;spacingRight=4;overflow=hidden;rotatable=0;points=[[0,0.5],[1,0.5]];portConstraint=eastwest;" vertex="1" parent="9NaxNAaGBJFPDdamEWR7-28">
          <mxGeometry y="26" width="280" height="274" as="geometry" />
        </mxCell>
        <mxCell id="9NaxNAaGBJFPDdamEWR7-30" value="" style="line;html=1;strokeWidth=1;align=left;verticalAlign=middle;spacingTop=-1;spacingLeft=3;spacingRight=3;rotatable=0;labelPosition=right;points=[];portConstraint=eastwest;" vertex="1" parent="9NaxNAaGBJFPDdamEWR7-28">
          <mxGeometry y="300" width="280" height="10" as="geometry" />
        </mxCell>
        <mxCell id="9NaxNAaGBJFPDdamEWR7-31" value="+ __init__(page: Page)&#xa;+ pick_files_result(e: FilePickerResultEvent) : None&#xa;+ build() : Container&#xa;+ notify_user(message: str) : None&#xa;+ verify_data(e: Event) : bool" style="text;align=left;verticalAlign=top;spacingLeft=4;spacingRight=4;overflow=hidden;rotatable=0;points=[[0,0.5],[1,0.5]];portConstraint=eastwest;" vertex="1" parent="9NaxNAaGBJFPDdamEWR7-28">
          <mxGeometry y="310" width="280" height="70" as="geometry" />
        </mxCell>
        <mxCell id="9NaxNAaGBJFPDdamEWR7-36" value="Pets" style="swimlane;fontStyle=0;align=center;verticalAlign=top;childLayout=stackLayout;horizontal=1;startSize=26;horizontalStack=0;resizeParent=1;resizeLast=0;collapsible=1;marginBottom=0;rounded=0;shadow=0;strokeWidth=1;" vertex="1" parent="WIyWlLk6GJQsqaUBKTNV-1">
          <mxGeometry x="2800" y="-1100" width="280" height="270" as="geometry">
            <mxRectangle x="550" y="140" width="160" height="26" as="alternateBounds" />
          </mxGeometry>
        </mxCell>
        <mxCell id="9NaxNAaGBJFPDdamEWR7-37" value="+ page: Page&#xa;+ element: Elements&#xa;+ animal_database: AnimalDatabase&#xa;+ title: str&#xa;+ new_pet: Button&#xa;+ back: Button&#xa;+ user: User&#xa;+ selected_item: dict&#xa;+ modal: ItemDetailsModal&#xa;+ modal_buttons: list" style="text;align=left;verticalAlign=top;spacingLeft=4;spacingRight=4;overflow=hidden;rotatable=0;points=[[0,0.5],[1,0.5]];portConstraint=eastwest;" vertex="1" parent="9NaxNAaGBJFPDdamEWR7-36">
          <mxGeometry y="26" width="280" height="154" as="geometry" />
        </mxCell>
        <mxCell id="9NaxNAaGBJFPDdamEWR7-38" value="" style="line;html=1;strokeWidth=1;align=left;verticalAlign=middle;spacingTop=-1;spacingLeft=3;spacingRight=3;rotatable=0;labelPosition=right;points=[];portConstraint=eastwest;" vertex="1" parent="9NaxNAaGBJFPDdamEWR7-36">
          <mxGeometry y="180" width="280" height="10" as="geometry" />
        </mxCell>
        <mxCell id="9NaxNAaGBJFPDdamEWR7-39" value="+ __init__(page: Page)&#xa;+ on_item_click(item: dict) : None&#xa;+ close_modal() : None&#xa;+ get_pets() : DataFrame&#xa;+ build() : Container" style="text;align=left;verticalAlign=top;spacingLeft=4;spacingRight=4;overflow=hidden;rotatable=0;points=[[0,0.5],[1,0.5]];portConstraint=eastwest;" vertex="1" parent="9NaxNAaGBJFPDdamEWR7-36">
          <mxGeometry y="190" width="280" height="70" as="geometry" />
        </mxCell>
        <mxCell id="9NaxNAaGBJFPDdamEWR7-40" value="Purchases " style="swimlane;fontStyle=0;align=center;verticalAlign=top;childLayout=stackLayout;horizontal=1;startSize=26;horizontalStack=0;resizeParent=1;resizeLast=0;collapsible=1;marginBottom=0;rounded=0;shadow=0;strokeWidth=1;" vertex="1" parent="WIyWlLk6GJQsqaUBKTNV-1">
          <mxGeometry x="2340" y="-910" width="280" height="170" as="geometry">
            <mxRectangle x="550" y="140" width="160" height="26" as="alternateBounds" />
          </mxGeometry>
        </mxCell>
        <mxCell id="9NaxNAaGBJFPDdamEWR7-41" value="+ page: Page&#xa;+ title: str&#xa;+ user: dict&#xa;+ back: ElevatedButton" style="text;align=left;verticalAlign=top;spacingLeft=4;spacingRight=4;overflow=hidden;rotatable=0;points=[[0,0.5],[1,0.5]];portConstraint=eastwest;" vertex="1" parent="9NaxNAaGBJFPDdamEWR7-40">
          <mxGeometry y="26" width="280" height="64" as="geometry" />
        </mxCell>
        <mxCell id="9NaxNAaGBJFPDdamEWR7-42" value="" style="line;html=1;strokeWidth=1;align=left;verticalAlign=middle;spacingTop=-1;spacingLeft=3;spacingRight=3;rotatable=0;labelPosition=right;points=[];portConstraint=eastwest;" vertex="1" parent="9NaxNAaGBJFPDdamEWR7-40">
          <mxGeometry y="90" width="280" height="10" as="geometry" />
        </mxCell>
        <mxCell id="9NaxNAaGBJFPDdamEWR7-43" value="+ __init__(page: Page)&#xa;+ get_user_purchases() : DataFrame&#xa;+ on_item_click(e: Event) : None&#xa;+ build() : Container" style="text;align=left;verticalAlign=top;spacingLeft=4;spacingRight=4;overflow=hidden;rotatable=0;points=[[0,0.5],[1,0.5]];portConstraint=eastwest;" vertex="1" parent="9NaxNAaGBJFPDdamEWR7-40">
          <mxGeometry y="100" width="280" height="70" as="geometry" />
        </mxCell>
        <mxCell id="9NaxNAaGBJFPDdamEWR7-44" value="Register" style="swimlane;fontStyle=0;align=center;verticalAlign=top;childLayout=stackLayout;horizontal=1;startSize=26;horizontalStack=0;resizeParent=1;resizeLast=0;collapsible=1;marginBottom=0;rounded=0;shadow=0;strokeWidth=1;" vertex="1" parent="WIyWlLk6GJQsqaUBKTNV-1">
          <mxGeometry x="1292" y="-788" width="280" height="280" as="geometry">
            <mxRectangle x="550" y="140" width="160" height="26" as="alternateBounds" />
          </mxGeometry>
        </mxCell>
        <mxCell id="9NaxNAaGBJFPDdamEWR7-45" value="+ page: Page&#xa;+ title: str&#xa;+ user_database: UserDatabase&#xa;+ input_name: TextField&#xa;+ input_email: TextField&#xa;+ input_cpf: TextField&#xa;+ input_address: TextField&#xa;+ input_password: TextField&#xa;+ register: ElevatedButton&#xa;+ back: ElevatedButton&#xa;+ observations: Text" style="text;align=left;verticalAlign=top;spacingLeft=4;spacingRight=4;overflow=hidden;rotatable=0;points=[[0,0.5],[1,0.5]];portConstraint=eastwest;" vertex="1" parent="9NaxNAaGBJFPDdamEWR7-44">
          <mxGeometry y="26" width="280" height="164" as="geometry" />
        </mxCell>
        <mxCell id="9NaxNAaGBJFPDdamEWR7-46" value="" style="line;html=1;strokeWidth=1;align=left;verticalAlign=middle;spacingTop=-1;spacingLeft=3;spacingRight=3;rotatable=0;labelPosition=right;points=[];portConstraint=eastwest;" vertex="1" parent="9NaxNAaGBJFPDdamEWR7-44">
          <mxGeometry y="190" width="280" height="10" as="geometry" />
        </mxCell>
        <mxCell id="9NaxNAaGBJFPDdamEWR7-47" value="+ __init__(page: Page)&#xa;+ build() : Container&#xa;+ verify_data(e: Event) : None&#xa;+ notify_user(message: str) : None&#xa;+ register_user(user: User) : None" style="text;align=left;verticalAlign=top;spacingLeft=4;spacingRight=4;overflow=hidden;rotatable=0;points=[[0,0.5],[1,0.5]];portConstraint=eastwest;" vertex="1" parent="9NaxNAaGBJFPDdamEWR7-44">
          <mxGeometry y="200" width="280" height="80" as="geometry" />
        </mxCell>
        <mxCell id="9NaxNAaGBJFPDdamEWR7-48" value="Shop" style="swimlane;fontStyle=0;align=center;verticalAlign=top;childLayout=stackLayout;horizontal=1;startSize=26;horizontalStack=0;resizeParent=1;resizeLast=0;collapsible=1;marginBottom=0;rounded=0;shadow=0;strokeWidth=1;" vertex="1" parent="WIyWlLk6GJQsqaUBKTNV-1">
          <mxGeometry x="340" y="-780" width="280" height="290" as="geometry">
            <mxRectangle x="550" y="140" width="160" height="26" as="alternateBounds" />
          </mxGeometry>
        </mxCell>
        <mxCell id="9NaxNAaGBJFPDdamEWR7-49" value="+ page: Page&#xa;+ element: Elements&#xa;+ product_list: list&#xa;+ selected_item: dict&#xa;+ title: str&#xa;+ cart: Shopping_Cart&#xa;+ cart_button: Button&#xa;+ back: Button&#xa;+ modal: ItemDetailsModal&#xa;+ modal_buttons: list" style="text;align=left;verticalAlign=top;spacingLeft=4;spacingRight=4;overflow=hidden;rotatable=0;points=[[0,0.5],[1,0.5]];portConstraint=eastwest;" vertex="1" parent="9NaxNAaGBJFPDdamEWR7-48">
          <mxGeometry y="26" width="280" height="154" as="geometry" />
        </mxCell>
        <mxCell id="9NaxNAaGBJFPDdamEWR7-50" value="" style="line;html=1;strokeWidth=1;align=left;verticalAlign=middle;spacingTop=-1;spacingLeft=3;spacingRight=3;rotatable=0;labelPosition=right;points=[];portConstraint=eastwest;" vertex="1" parent="9NaxNAaGBJFPDdamEWR7-48">
          <mxGeometry y="180" width="280" height="10" as="geometry" />
        </mxCell>
        <mxCell id="9NaxNAaGBJFPDdamEWR7-51" value="+ __init__(page: Page)&#xa;+ on_item_click(item: dict) : None&#xa;+ close_modal() : None&#xa;+ load_products() : DataFrame&#xa;+ add_to_cart(selected_item: dict) : None&#xa;+ build() : Container" style="text;align=left;verticalAlign=top;spacingLeft=4;spacingRight=4;overflow=hidden;rotatable=0;points=[[0,0.5],[1,0.5]];portConstraint=eastwest;" vertex="1" parent="9NaxNAaGBJFPDdamEWR7-48">
          <mxGeometry y="190" width="280" height="100" as="geometry" />
        </mxCell>
        <mxCell id="9NaxNAaGBJFPDdamEWR7-52" value="Animal" style="swimlane;fontStyle=0;align=center;verticalAlign=top;childLayout=stackLayout;horizontal=1;startSize=26;horizontalStack=0;resizeParent=1;resizeLast=0;collapsible=1;marginBottom=0;rounded=0;shadow=0;strokeWidth=1;" vertex="1" parent="WIyWlLk6GJQsqaUBKTNV-1">
          <mxGeometry x="1800" y="-414" width="310" height="540" as="geometry">
            <mxRectangle x="550" y="140" width="160" height="26" as="alternateBounds" />
          </mxGeometry>
        </mxCell>
        <mxCell id="9NaxNAaGBJFPDdamEWR7-53" value="+ id_pet: str&#xa;+ id_user: str&#xa;+ specie: str&#xa;+ name: str&#xa;+ sex: str&#xa;+ castrated: str&#xa;+ race: str&#xa;+ age: str&#xa;+ weight: str&#xa;+ image: str" style="text;align=left;verticalAlign=top;spacingLeft=4;spacingRight=4;overflow=hidden;rotatable=0;points=[[0,0.5],[1,0.5]];portConstraint=eastwest;" vertex="1" parent="9NaxNAaGBJFPDdamEWR7-52">
          <mxGeometry y="26" width="310" height="154" as="geometry" />
        </mxCell>
        <mxCell id="9NaxNAaGBJFPDdamEWR7-54" value="" style="line;html=1;strokeWidth=1;align=left;verticalAlign=middle;spacingTop=-1;spacingLeft=3;spacingRight=3;rotatable=0;labelPosition=right;points=[];portConstraint=eastwest;" vertex="1" parent="9NaxNAaGBJFPDdamEWR7-52">
          <mxGeometry y="180" width="310" height="10" as="geometry" />
        </mxCell>
        <mxCell id="9NaxNAaGBJFPDdamEWR7-55" value="+ __init__(id_pet: str = None, id_user: str = None, &#xa;specie: str = None, name: str = None, sex: str = None, &#xa;castrated: str = None, race: str = None, age: str = None, &#xa;weight: str = None, image: str = None)&#xa;+ id_pet() : str&#xa;+ id_pet(value: str) : None&#xa;+ id_user() : str&#xa;+ id_user(value: str) : None&#xa;+ specie() : str&#xa;+ specie(value: str) : None&#xa;+ name() : str&#xa;+ name(value: str) : None&#xa;+ sex() : str&#xa;+ sex(value: str) : None&#xa;+ castrated() : str&#xa;+ castrated(value: str) : None&#xa;+ race() : str&#xa;+ race(value: str) : None&#xa;+ age() : str&#xa;+ age(value: str) : None&#xa;+ weight() : str&#xa;+ weight(value: str) : None&#xa;+ image() : str&#xa;+ image(value: str) : None" style="text;align=left;verticalAlign=top;spacingLeft=4;spacingRight=4;overflow=hidden;rotatable=0;points=[[0,0.5],[1,0.5]];portConstraint=eastwest;" vertex="1" parent="9NaxNAaGBJFPDdamEWR7-52">
          <mxGeometry y="190" width="310" height="350" as="geometry" />
        </mxCell>
        <mxCell id="9NaxNAaGBJFPDdamEWR7-56" value="Product" style="swimlane;fontStyle=0;align=center;verticalAlign=top;childLayout=stackLayout;horizontal=1;startSize=26;horizontalStack=0;resizeParent=1;resizeLast=0;collapsible=1;marginBottom=0;rounded=0;shadow=0;strokeWidth=1;" vertex="1" parent="WIyWlLk6GJQsqaUBKTNV-1">
          <mxGeometry x="80" y="-200" width="310" height="200" as="geometry">
            <mxRectangle x="550" y="140" width="160" height="26" as="alternateBounds" />
          </mxGeometry>
        </mxCell>
        <mxCell id="9NaxNAaGBJFPDdamEWR7-57" value="+ id_product: str&#xa;+ name: str&#xa;+ price: float&#xa;+ quantity: int&#xa;+ image: str&#xa;+ description: str" style="text;align=left;verticalAlign=top;spacingLeft=4;spacingRight=4;overflow=hidden;rotatable=0;points=[[0,0.5],[1,0.5]];portConstraint=eastwest;" vertex="1" parent="9NaxNAaGBJFPDdamEWR7-56">
          <mxGeometry y="26" width="310" height="94" as="geometry" />
        </mxCell>
        <mxCell id="9NaxNAaGBJFPDdamEWR7-58" value="" style="line;html=1;strokeWidth=1;align=left;verticalAlign=middle;spacingTop=-1;spacingLeft=3;spacingRight=3;rotatable=0;labelPosition=right;points=[];portConstraint=eastwest;" vertex="1" parent="9NaxNAaGBJFPDdamEWR7-56">
          <mxGeometry y="120" width="310" height="10" as="geometry" />
        </mxCell>
        <mxCell id="9NaxNAaGBJFPDdamEWR7-59" value="+ __init__(id_product: str = None, name: str = None, &#xa;price: float = None, quantity: int = None, &#xa;image: str = None, description: str = None)" style="text;align=left;verticalAlign=top;spacingLeft=4;spacingRight=4;overflow=hidden;rotatable=0;points=[[0,0.5],[1,0.5]];portConstraint=eastwest;" vertex="1" parent="9NaxNAaGBJFPDdamEWR7-56">
          <mxGeometry y="130" width="310" height="70" as="geometry" />
        </mxCell>
        <mxCell id="9NaxNAaGBJFPDdamEWR7-60" value="Shooping_Cart" style="swimlane;fontStyle=0;align=center;verticalAlign=top;childLayout=stackLayout;horizontal=1;startSize=26;horizontalStack=0;resizeParent=1;resizeLast=0;collapsible=1;marginBottom=0;rounded=0;shadow=0;strokeWidth=1;" vertex="1" parent="WIyWlLk6GJQsqaUBKTNV-1">
          <mxGeometry x="330" y="80" width="310" height="200" as="geometry">
            <mxRectangle x="550" y="140" width="160" height="26" as="alternateBounds" />
          </mxGeometry>
        </mxCell>
        <mxCell id="9NaxNAaGBJFPDdamEWR7-61" value="+ product_list: DataFrame&#xa;+ total_price: float&#xa;+ len: int" style="text;align=left;verticalAlign=top;spacingLeft=4;spacingRight=4;overflow=hidden;rotatable=0;points=[[0,0.5],[1,0.5]];portConstraint=eastwest;" vertex="1" parent="9NaxNAaGBJFPDdamEWR7-60">
          <mxGeometry y="26" width="310" height="64" as="geometry" />
        </mxCell>
        <mxCell id="9NaxNAaGBJFPDdamEWR7-62" value="" style="line;html=1;strokeWidth=1;align=left;verticalAlign=middle;spacingTop=-1;spacingLeft=3;spacingRight=3;rotatable=0;labelPosition=right;points=[];portConstraint=eastwest;" vertex="1" parent="9NaxNAaGBJFPDdamEWR7-60">
          <mxGeometry y="90" width="310" height="10" as="geometry" />
        </mxCell>
        <mxCell id="9NaxNAaGBJFPDdamEWR7-63" value="+ __init__() : None&#xa;+ add_product(product_row: dict) : None&#xa;+ remove_product(product_row: dict) : None&#xa;+ get_quantity_in_cart(id_product: str) : int&#xa;+ get_total_price() : float&#xa;+ get_cart() : DataFrame" style="text;align=left;verticalAlign=top;spacingLeft=4;spacingRight=4;overflow=hidden;rotatable=0;points=[[0,0.5],[1,0.5]];portConstraint=eastwest;" vertex="1" parent="9NaxNAaGBJFPDdamEWR7-60">
          <mxGeometry y="100" width="310" height="100" as="geometry" />
        </mxCell>
        <mxCell id="9NaxNAaGBJFPDdamEWR7-65" value="User" style="swimlane;fontStyle=0;align=center;verticalAlign=top;childLayout=stackLayout;horizontal=1;startSize=26;horizontalStack=0;resizeParent=1;resizeLast=0;collapsible=1;marginBottom=0;rounded=0;shadow=0;strokeWidth=1;" vertex="1" parent="WIyWlLk6GJQsqaUBKTNV-1">
          <mxGeometry x="1270" y="-123" width="310" height="360" as="geometry">
            <mxRectangle x="550" y="140" width="160" height="26" as="alternateBounds" />
          </mxGeometry>
        </mxCell>
        <mxCell id="9NaxNAaGBJFPDdamEWR7-66" value="+ id_user: str&#xa;+ name: str&#xa;+ password: str&#xa;+ email: str&#xa;+ cpf: str&#xa;+ address: str" style="text;align=left;verticalAlign=top;spacingLeft=4;spacingRight=4;overflow=hidden;rotatable=0;points=[[0,0.5],[1,0.5]];portConstraint=eastwest;" vertex="1" parent="9NaxNAaGBJFPDdamEWR7-65">
          <mxGeometry y="26" width="310" height="94" as="geometry" />
        </mxCell>
        <mxCell id="9NaxNAaGBJFPDdamEWR7-67" value="" style="line;html=1;strokeWidth=1;align=left;verticalAlign=middle;spacingTop=-1;spacingLeft=3;spacingRight=3;rotatable=0;labelPosition=right;points=[];portConstraint=eastwest;" vertex="1" parent="9NaxNAaGBJFPDdamEWR7-65">
          <mxGeometry y="120" width="310" height="10" as="geometry" />
        </mxCell>
        <mxCell id="9NaxNAaGBJFPDdamEWR7-68" value="+ __init__(id_user: str = None, name: str = None, &#xa;password: str = None, email: str = None, &#xa;cpf: str = None, address: str = None)&#xa;+ id_user() : str&#xa;+ id_user(value: str) : None&#xa;+ name() : str&#xa;+ name(value: str) : None&#xa;+ password() : str&#xa;+ password(value: str) : None&#xa;+ email() : str&#xa;+ email(value: str) : None&#xa;+ cpf() : str&#xa;+ cpf(value: str) : None&#xa;+ address() : str&#xa;+ address(value: str) : None" style="text;align=left;verticalAlign=top;spacingLeft=4;spacingRight=4;overflow=hidden;rotatable=0;points=[[0,0.5],[1,0.5]];portConstraint=eastwest;" vertex="1" parent="9NaxNAaGBJFPDdamEWR7-65">
          <mxGeometry y="130" width="310" height="230" as="geometry" />
        </mxCell>
        <mxCell id="9NaxNAaGBJFPDdamEWR7-73" value="Elements" style="swimlane;fontStyle=0;align=center;verticalAlign=top;childLayout=stackLayout;horizontal=1;startSize=26;horizontalStack=0;resizeParent=1;resizeLast=0;collapsible=1;marginBottom=0;rounded=0;shadow=0;strokeWidth=1;" vertex="1" parent="WIyWlLk6GJQsqaUBKTNV-1">
          <mxGeometry x="1130" y="510" width="340" height="150" as="geometry">
            <mxRectangle x="550" y="140" width="160" height="26" as="alternateBounds" />
          </mxGeometry>
        </mxCell>
        <mxCell id="9NaxNAaGBJFPDdamEWR7-74" value="+ button: ElevatedButton&#xa;+ text: Text" style="text;align=left;verticalAlign=top;spacingLeft=4;spacingRight=4;overflow=hidden;rotatable=0;points=[[0,0.5],[1,0.5]];portConstraint=eastwest;" vertex="1" parent="9NaxNAaGBJFPDdamEWR7-73">
          <mxGeometry y="26" width="340" height="34" as="geometry" />
        </mxCell>
        <mxCell id="9NaxNAaGBJFPDdamEWR7-75" value="" style="line;html=1;strokeWidth=1;align=left;verticalAlign=middle;spacingTop=-1;spacingLeft=3;spacingRight=3;rotatable=0;labelPosition=right;points=[];portConstraint=eastwest;" vertex="1" parent="9NaxNAaGBJFPDdamEWR7-73">
          <mxGeometry y="60" width="340" height="10" as="geometry" />
        </mxCell>
        <mxCell id="9NaxNAaGBJFPDdamEWR7-76" value="+ __init__(button: ElevatedButton = None, text: Text = None)&#xa;+ create_button(texto: str, function: callable) : ElevatedButton&#xa;+ create_title(text: str) : Text&#xa;+ create_text(text: str) : Text" style="text;align=left;verticalAlign=top;spacingLeft=4;spacingRight=4;overflow=hidden;rotatable=0;points=[[0,0.5],[1,0.5]];portConstraint=eastwest;" vertex="1" parent="9NaxNAaGBJFPDdamEWR7-73">
          <mxGeometry y="70" width="340" height="80" as="geometry" />
        </mxCell>
        <mxCell id="9NaxNAaGBJFPDdamEWR7-77" value="ItemDetailsModal" style="swimlane;fontStyle=0;align=center;verticalAlign=top;childLayout=stackLayout;horizontal=1;startSize=26;horizontalStack=0;resizeParent=1;resizeLast=0;collapsible=1;marginBottom=0;rounded=0;shadow=0;strokeWidth=1;" vertex="1" parent="WIyWlLk6GJQsqaUBKTNV-1">
          <mxGeometry x="1510" y="510" width="340" height="210" as="geometry">
            <mxRectangle x="550" y="140" width="160" height="26" as="alternateBounds" />
          </mxGeometry>
        </mxCell>
        <mxCell id="9NaxNAaGBJFPDdamEWR7-78" value="+ item: DataFrame&#xa;+ title_col_name: str&#xa;+ image_url: str&#xa;+ modal_image: Image&#xa;+ modal_desc: Text&#xa;+ on_close: callable&#xa;+ buttons_list: list" style="text;align=left;verticalAlign=top;spacingLeft=4;spacingRight=4;overflow=hidden;rotatable=0;points=[[0,0.5],[1,0.5]];portConstraint=eastwest;" vertex="1" parent="9NaxNAaGBJFPDdamEWR7-77">
          <mxGeometry y="26" width="340" height="114" as="geometry" />
        </mxCell>
        <mxCell id="9NaxNAaGBJFPDdamEWR7-79" value="" style="line;html=1;strokeWidth=1;align=left;verticalAlign=middle;spacingTop=-1;spacingLeft=3;spacingRight=3;rotatable=0;labelPosition=right;points=[];portConstraint=eastwest;" vertex="1" parent="9NaxNAaGBJFPDdamEWR7-77">
          <mxGeometry y="140" width="340" height="10" as="geometry" />
        </mxCell>
        <mxCell id="9NaxNAaGBJFPDdamEWR7-80" value="+ __init__(item: DataFrame, on_close: callable, &#xa;title_col_name: str, desc: str, buttons_list: list = None)&#xa;+ build() : AlertDialog" style="text;align=left;verticalAlign=top;spacingLeft=4;spacingRight=4;overflow=hidden;rotatable=0;points=[[0,0.5],[1,0.5]];portConstraint=eastwest;" vertex="1" parent="9NaxNAaGBJFPDdamEWR7-77">
          <mxGeometry y="150" width="340" height="60" as="geometry" />
        </mxCell>
        <mxCell id="9NaxNAaGBJFPDdamEWR7-81" value="Scroller_List" style="swimlane;fontStyle=0;align=center;verticalAlign=top;childLayout=stackLayout;horizontal=1;startSize=26;horizontalStack=0;resizeParent=1;resizeLast=0;collapsible=1;marginBottom=0;rounded=0;shadow=0;strokeWidth=1;" vertex="1" parent="WIyWlLk6GJQsqaUBKTNV-1">
          <mxGeometry x="1890" y="510" width="340" height="170" as="geometry">
            <mxRectangle x="550" y="140" width="160" height="26" as="alternateBounds" />
          </mxGeometry>
        </mxCell>
        <mxCell id="9NaxNAaGBJFPDdamEWR7-82" value="+ dataframe: DataFrame&#xa;+ title_col_name: str&#xa;+ desc_col_names: dict&#xa;+ on_item_click: callable" style="text;align=left;verticalAlign=top;spacingLeft=4;spacingRight=4;overflow=hidden;rotatable=0;points=[[0,0.5],[1,0.5]];portConstraint=eastwest;" vertex="1" parent="9NaxNAaGBJFPDdamEWR7-81">
          <mxGeometry y="26" width="340" height="74" as="geometry" />
        </mxCell>
        <mxCell id="9NaxNAaGBJFPDdamEWR7-83" value="" style="line;html=1;strokeWidth=1;align=left;verticalAlign=middle;spacingTop=-1;spacingLeft=3;spacingRight=3;rotatable=0;labelPosition=right;points=[];portConstraint=eastwest;" vertex="1" parent="9NaxNAaGBJFPDdamEWR7-81">
          <mxGeometry y="100" width="340" height="10" as="geometry" />
        </mxCell>
        <mxCell id="9NaxNAaGBJFPDdamEWR7-84" value="+ __init__(dataframe: DataFrame, title_col_name: str, &#xa;desc_col_names: dict, on_item_click: callable)&#xa;+ build() : ListView" style="text;align=left;verticalAlign=top;spacingLeft=4;spacingRight=4;overflow=hidden;rotatable=0;points=[[0,0.5],[1,0.5]];portConstraint=eastwest;" vertex="1" parent="9NaxNAaGBJFPDdamEWR7-81">
          <mxGeometry y="110" width="340" height="60" as="geometry" />
        </mxCell>
        <mxCell id="9NaxNAaGBJFPDdamEWR7-85" value="SucessDialog" style="swimlane;fontStyle=0;align=center;verticalAlign=top;childLayout=stackLayout;horizontal=1;startSize=26;horizontalStack=0;resizeParent=1;resizeLast=0;collapsible=1;marginBottom=0;rounded=0;shadow=0;strokeWidth=1;" vertex="1" parent="WIyWlLk6GJQsqaUBKTNV-1">
          <mxGeometry x="2270" y="510" width="340" height="140" as="geometry">
            <mxRectangle x="550" y="140" width="160" height="26" as="alternateBounds" />
          </mxGeometry>
        </mxCell>
        <mxCell id="9NaxNAaGBJFPDdamEWR7-86" value="+ page: Page&#xa;+ sucess_dialog: AlertDialog&#xa;" style="text;align=left;verticalAlign=top;spacingLeft=4;spacingRight=4;overflow=hidden;rotatable=0;points=[[0,0.5],[1,0.5]];portConstraint=eastwest;" vertex="1" parent="9NaxNAaGBJFPDdamEWR7-85">
          <mxGeometry y="26" width="340" height="44" as="geometry" />
        </mxCell>
        <mxCell id="9NaxNAaGBJFPDdamEWR7-87" value="" style="line;html=1;strokeWidth=1;align=left;verticalAlign=middle;spacingTop=-1;spacingLeft=3;spacingRight=3;rotatable=0;labelPosition=right;points=[];portConstraint=eastwest;" vertex="1" parent="9NaxNAaGBJFPDdamEWR7-85">
          <mxGeometry y="70" width="340" height="10" as="geometry" />
        </mxCell>
        <mxCell id="9NaxNAaGBJFPDdamEWR7-88" value="+ __init__(title: str, message: str, page: Page)&#xa;+ show() : None&#xa;+ close() : None" style="text;align=left;verticalAlign=top;spacingLeft=4;spacingRight=4;overflow=hidden;rotatable=0;points=[[0,0.5],[1,0.5]];portConstraint=eastwest;" vertex="1" parent="9NaxNAaGBJFPDdamEWR7-85">
          <mxGeometry y="80" width="340" height="60" as="geometry" />
        </mxCell>
        <mxCell id="9NaxNAaGBJFPDdamEWR7-90" value="" style="endArrow=none;html=1;rounded=0;exitX=0.414;exitY=0.005;exitDx=0;exitDy=0;exitPerimeter=0;" edge="1" parent="WIyWlLk6GJQsqaUBKTNV-1" source="zkfFHV4jXpPFQw0GAbJ--0">
          <mxGeometry width="50" height="50" relative="1" as="geometry">
            <mxPoint x="1980" y="-570" as="sourcePoint" />
            <mxPoint x="1930" y="-710" as="targetPoint" />
          </mxGeometry>
        </mxCell>
        <mxCell id="9NaxNAaGBJFPDdamEWR7-92" value="" style="endArrow=none;html=1;rounded=0;entryX=0.478;entryY=0.992;entryDx=0;entryDy=0;entryPerimeter=0;exitX=0.5;exitY=0;exitDx=0;exitDy=0;" edge="1" parent="WIyWlLk6GJQsqaUBKTNV-1" source="9NaxNAaGBJFPDdamEWR7-0" target="9NaxNAaGBJFPDdamEWR7-47">
          <mxGeometry width="50" height="50" relative="1" as="geometry">
            <mxPoint x="1422" y="-323" as="sourcePoint" />
            <mxPoint x="1082" y="-393" as="targetPoint" />
          </mxGeometry>
        </mxCell>
        <mxCell id="9NaxNAaGBJFPDdamEWR7-93" value="" style="endArrow=none;html=1;rounded=0;exitX=0.484;exitY=0;exitDx=0;exitDy=0;exitPerimeter=0;" edge="1" parent="WIyWlLk6GJQsqaUBKTNV-1" source="9NaxNAaGBJFPDdamEWR7-20">
          <mxGeometry width="50" height="50" relative="1" as="geometry">
            <mxPoint x="610" y="-778" as="sourcePoint" />
            <mxPoint x="836" y="-898" as="targetPoint" />
          </mxGeometry>
        </mxCell>
        <mxCell id="9NaxNAaGBJFPDdamEWR7-94" value="" style="endArrow=none;html=1;rounded=0;entryX=0.483;entryY=1.032;entryDx=0;entryDy=0;entryPerimeter=0;exitX=0.5;exitY=0;exitDx=0;exitDy=0;" edge="1" parent="WIyWlLk6GJQsqaUBKTNV-1" source="9NaxNAaGBJFPDdamEWR7-16" target="9NaxNAaGBJFPDdamEWR7-15">
          <mxGeometry width="50" height="50" relative="1" as="geometry">
            <mxPoint x="670" y="-828" as="sourcePoint" />
            <mxPoint x="720" y="-878" as="targetPoint" />
            <Array as="points">
              <mxPoint x="1124" y="-830" />
              <mxPoint x="836" y="-830" />
            </Array>
          </mxGeometry>
        </mxCell>
        <mxCell id="9NaxNAaGBJFPDdamEWR7-97" value="" style="endArrow=none;html=1;rounded=0;entryX=0.501;entryY=0.984;entryDx=0;entryDy=0;entryPerimeter=0;exitX=0.517;exitY=0;exitDx=0;exitDy=0;exitPerimeter=0;" edge="1" parent="WIyWlLk6GJQsqaUBKTNV-1" source="9NaxNAaGBJFPDdamEWR7-56" target="zkfFHV4jXpPFQw0GAbJ--25">
          <mxGeometry width="50" height="50" relative="1" as="geometry">
            <mxPoint x="240" y="-170" as="sourcePoint" />
            <mxPoint x="290" y="-220" as="targetPoint" />
          </mxGeometry>
        </mxCell>
        <mxCell id="9NaxNAaGBJFPDdamEWR7-101" value="" style="endArrow=none;html=1;rounded=0;exitX=0.484;exitY=0;exitDx=0;exitDy=0;exitPerimeter=0;entryX=0.488;entryY=1.01;entryDx=0;entryDy=0;entryPerimeter=0;" edge="1" parent="WIyWlLk6GJQsqaUBKTNV-1" source="9NaxNAaGBJFPDdamEWR7-52" target="zkfFHV4jXpPFQw0GAbJ--3">
          <mxGeometry width="50" height="50" relative="1" as="geometry">
            <mxPoint x="2070" y="-344" as="sourcePoint" />
            <mxPoint x="2120" y="-394" as="targetPoint" />
          </mxGeometry>
        </mxCell>
        <mxCell id="9NaxNAaGBJFPDdamEWR7-103" value="" style="endArrow=none;html=1;rounded=0;exitX=0.5;exitY=0;exitDx=0;exitDy=0;" edge="1" parent="WIyWlLk6GJQsqaUBKTNV-1" source="9NaxNAaGBJFPDdamEWR7-40">
          <mxGeometry width="50" height="50" relative="1" as="geometry">
            <mxPoint x="2510" y="-840" as="sourcePoint" />
            <mxPoint x="2480" y="-980" as="targetPoint" />
          </mxGeometry>
        </mxCell>
        <mxCell id="9NaxNAaGBJFPDdamEWR7-105" value="" style="endArrow=none;html=1;rounded=0;exitX=0.509;exitY=0.001;exitDx=0;exitDy=0;entryX=0.507;entryY=0.997;entryDx=0;entryDy=0;entryPerimeter=0;exitPerimeter=0;" edge="1" parent="WIyWlLk6GJQsqaUBKTNV-1" source="9NaxNAaGBJFPDdamEWR7-65" target="9NaxNAaGBJFPDdamEWR7-3">
          <mxGeometry width="50" height="50" relative="1" as="geometry">
            <mxPoint x="1092" y="-303" as="sourcePoint" />
            <mxPoint x="1092" y="-383" as="targetPoint" />
          </mxGeometry>
        </mxCell>
        <mxCell id="9NaxNAaGBJFPDdamEWR7-106" value="" style="endArrow=none;html=1;rounded=0;exitX=0.5;exitY=0;exitDx=0;exitDy=0;entryX=0.501;entryY=1.001;entryDx=0;entryDy=0;entryPerimeter=0;" edge="1" parent="WIyWlLk6GJQsqaUBKTNV-1" source="9NaxNAaGBJFPDdamEWR7-4" target="9NaxNAaGBJFPDdamEWR7-51">
          <mxGeometry width="50" height="50" relative="1" as="geometry">
            <mxPoint x="832" y="-180" as="sourcePoint" />
            <mxPoint x="482" y="-490" as="targetPoint" />
            <Array as="points">
              <mxPoint x="670" y="-430" />
              <mxPoint x="480" y="-430" />
            </Array>
          </mxGeometry>
        </mxCell>
        <mxCell id="9NaxNAaGBJFPDdamEWR7-120" value="" style="endArrow=none;html=1;rounded=0;entryX=0.5;entryY=0;entryDx=0;entryDy=0;exitX=0.504;exitY=0.993;exitDx=0;exitDy=0;exitPerimeter=0;" edge="1" parent="WIyWlLk6GJQsqaUBKTNV-1" source="9NaxNAaGBJFPDdamEWR7-51" target="zkfFHV4jXpPFQw0GAbJ--17">
          <mxGeometry width="50" height="50" relative="1" as="geometry">
            <mxPoint x="480" y="-480" as="sourcePoint" />
            <mxPoint x="260" y="-475" as="targetPoint" />
            <Array as="points">
              <mxPoint x="481" y="-430" />
              <mxPoint x="240" y="-430" />
            </Array>
          </mxGeometry>
        </mxCell>
        <mxCell id="9NaxNAaGBJFPDdamEWR7-121" value="" style="endArrow=none;html=1;rounded=0;entryX=0.5;entryY=0;entryDx=0;entryDy=0;exitX=0.47;exitY=1.002;exitDx=0;exitDy=0;exitPerimeter=0;" edge="1" parent="WIyWlLk6GJQsqaUBKTNV-1" source="9NaxNAaGBJFPDdamEWR7-59" target="9NaxNAaGBJFPDdamEWR7-60">
          <mxGeometry width="50" height="50" relative="1" as="geometry">
            <mxPoint x="250" y="-190" as="sourcePoint" />
            <mxPoint x="250" y="-271" as="targetPoint" />
            <Array as="points">
              <mxPoint x="226" y="30" />
              <mxPoint x="485" y="30" />
            </Array>
          </mxGeometry>
        </mxCell>
        <mxCell id="9NaxNAaGBJFPDdamEWR7-122" value="" style="endArrow=none;html=1;rounded=0;exitX=0.5;exitY=0;exitDx=0;exitDy=0;" edge="1" parent="WIyWlLk6GJQsqaUBKTNV-1" source="9NaxNAaGBJFPDdamEWR7-60">
          <mxGeometry width="50" height="50" relative="1" as="geometry">
            <mxPoint x="490" y="80" as="sourcePoint" />
            <mxPoint x="680" y="-200" as="targetPoint" />
            <Array as="points">
              <mxPoint x="485" y="30" />
              <mxPoint x="680" y="30" />
            </Array>
          </mxGeometry>
        </mxCell>
        <mxCell id="9NaxNAaGBJFPDdamEWR7-123" value="" style="endArrow=none;html=1;rounded=0;exitX=0.523;exitY=-0.001;exitDx=0;exitDy=0;exitPerimeter=0;" edge="1" parent="WIyWlLk6GJQsqaUBKTNV-1" source="9NaxNAaGBJFPDdamEWR7-8">
          <mxGeometry width="50" height="50" relative="1" as="geometry">
            <mxPoint x="260" y="-180" as="sourcePoint" />
            <mxPoint x="491" y="280" as="targetPoint" />
          </mxGeometry>
        </mxCell>
        <mxCell id="9NaxNAaGBJFPDdamEWR7-124" value="" style="endArrow=none;html=1;rounded=0;entryX=0.5;entryY=1;entryDx=0;entryDy=0;exitX=0.5;exitY=0;exitDx=0;exitDy=0;" edge="1" parent="WIyWlLk6GJQsqaUBKTNV-1" source="9NaxNAaGBJFPDdamEWR7-24" target="9NaxNAaGBJFPDdamEWR7-8">
          <mxGeometry width="50" height="50" relative="1" as="geometry">
            <mxPoint x="270" y="-170" as="sourcePoint" />
            <mxPoint x="270" y="-251" as="targetPoint" />
          </mxGeometry>
        </mxCell>
        <mxCell id="9NaxNAaGBJFPDdamEWR7-125" value="" style="endArrow=none;html=1;rounded=0;entryX=0.484;entryY=0.995;entryDx=0;entryDy=0;entryPerimeter=0;exitX=0.5;exitY=0;exitDx=0;exitDy=0;" edge="1" parent="WIyWlLk6GJQsqaUBKTNV-1" source="9NaxNAaGBJFPDdamEWR7-48" target="9NaxNAaGBJFPDdamEWR7-15">
          <mxGeometry width="50" height="50" relative="1" as="geometry">
            <mxPoint x="650" y="-810" as="sourcePoint" />
            <mxPoint x="840" y="-900" as="targetPoint" />
            <Array as="points">
              <mxPoint x="480" y="-830" />
              <mxPoint x="836" y="-830" />
            </Array>
          </mxGeometry>
        </mxCell>
        <mxCell id="9NaxNAaGBJFPDdamEWR7-126" value="" style="endArrow=none;html=1;rounded=0;exitX=0.5;exitY=0;exitDx=0;exitDy=0;entryX=0.484;entryY=1.009;entryDx=0;entryDy=0;entryPerimeter=0;" edge="1" parent="WIyWlLk6GJQsqaUBKTNV-1" source="9NaxNAaGBJFPDdamEWR7-44" target="9NaxNAaGBJFPDdamEWR7-15">
          <mxGeometry width="50" height="50" relative="1" as="geometry">
            <mxPoint x="1128" y="-788" as="sourcePoint" />
            <mxPoint x="840" y="-900" as="targetPoint" />
            <Array as="points">
              <mxPoint x="1432" y="-830" />
              <mxPoint x="836" y="-830" />
            </Array>
          </mxGeometry>
        </mxCell>
      </root>
    </mxGraphModel>
  </diagram>
</mxfile>
